<svg 
 xmlns="http://www.w3.org/2000/svg"
 xmlns:xlink="http://www.w3.org/1999/xlink"
 width="70px" height="70px">
<path fill-rule="evenodd"  fill="rgb(255, 255, 255)"
 d="M31.252,18.652 L48.967,33.415 C49.437,33.806 49.708,34.386 49.708,34.997 C49.708,35.609 49.437,36.188 48.967,36.580 L31.252,51.342 C30.875,51.656 30.406,51.819 29.933,51.819 C29.637,51.819 29.339,51.755 29.60,51.625 C28.336,51.286 27.874,50.559 27.874,49.760 L27.874,20.235 C27.874,19.436 28.336,18.708 29.60,18.369 C29.783,18.30 30.639,18.141 31.252,18.652 ZM31.994,45.362 L44.431,34.997 L31.994,24.632 L31.994,45.362 ZM59.759,59.759 C53.33,66.484 44.25,69.998 34.936,69.998 C29.72,69.999 23.173,68.535 17.830,65.527 C16.839,64.970 16.487,63.713 17.46,62.722 C17.603,61.730 18.860,61.378 19.851,61.937 C31.869,68.703 47.82,66.611 56.845,56.845 C68.892,44.798 68.892,25.197 56.845,13.150 C44.798,1.101 25.196,1.101 13.150,13.150 C1.103,25.197 1.103,44.798 13.150,56.845 C13.954,57.649 13.954,58.954 13.150,59.759 C12.346,60.563 11.41,60.563 10.237,59.759 C-3.415,46.104 -3.415,23.890 10.237,10.236 C23.890,-3.415 46.104,-3.417 59.759,10.236 C73.411,23.890 73.411,46.104 59.759,59.759 Z"/>
</svg>