<?xml version="1.0" standalone="no"?>
<!DOCTYPE svg PUBLIC "-//W3C//DTD SVG 20010904//EN"
 "http://www.w3.org/TR/2001/REC-SVG-20010904/DTD/svg10.dtd">
<svg version="1.0" xmlns="http://www.w3.org/2000/svg"
 width="260.000000pt" height="260.000000pt" viewBox="0 0 260.000000 260.000000"
 preserveAspectRatio="xMidYMid meet">
<metadata>
Created by potrace 1.14, written by Peter Selinger 2001-2017
</metadata>
<g transform="translate(0.000000,260.000000) scale(0.100000,-0.100000)"
fill="#000000" stroke="none">
<path d="M0 1300 l0 -1300 1300 0 1300 0 0 1300 0 1300 -1300 0 -1300 0 0
-1300z m819 168 c62 -194 116 -356 120 -360 3 -4 61 153 127 350 l122 357 114
3 114 3 114 -353 c62 -194 116 -359 119 -366 4 -7 61 151 127 350 l120 363
117 3 c64 1 117 0 117 -4 0 -4 -77 -240 -170 -525 l-171 -519 -132 0 -133 0
-108 338 c-60 185 -112 343 -115 349 -4 7 -60 -145 -125 -337 l-119 -350 -131
0 -132 0 -109 333 c-59 182 -136 419 -171 525 l-62 192 127 0 128 0 112 -352z"/>
</g>
</svg>
