<?xml version="1.0" standalone="no"?>
<!DOCTYPE svg PUBLIC "-//W3C//DTD SVG 20010904//EN"
 "http://www.w3.org/TR/2001/REC-SVG-20010904/DTD/svg10.dtd">
<svg version="1.0" xmlns="http://www.w3.org/2000/svg"
 width="700.000000pt" height="700.000000pt" viewBox="0 0 700.000000 700.000000"
 preserveAspectRatio="xMidYMid meet">
<metadata>
Created by potrace 1.14, written by Peter Selinger 2001-2017
</metadata>
<g transform="translate(0.000000,700.000000) scale(0.100000,-0.100000)"
fill="#000000" stroke="none">
<path d="M3359 6730 c-68 -110 -131 -213 -140 -228 -9 -15 -77 -126 -151 -247
-74 -121 -139 -229 -145 -240 -11 -20 -8 -20 562 -20 315 0 572 2 570 5 -21
37 -313 514 -329 540 -13 19 -70 112 -126 205 -57 94 -106 174 -110 178 -4 5
-63 -82 -131 -193z"/>
<path d="M2913 5823 c18 -31 209 -367 229 -403 152 -270 337 -585 344 -584 5
1 12 8 16 15 4 8 50 88 102 179 89 158 109 191 163 287 13 23 82 144 153 269
72 124 130 230 130 235 0 5 -237 9 -571 9 -313 0 -568 -3 -566 -7z"/>
<path d="M2743 5703 c-26 -46 -73 -133 -126 -233 -22 -41 -66 -122 -97 -180
-31 -58 -75 -139 -97 -180 -56 -105 -109 -202 -159 -292 l-43 -78 560 0 561 0
-20 33 c-10 17 -30 50 -43 72 -42 69 -80 139 -86 158 -3 9 -9 17 -14 17 -5 0
-9 4 -9 8 0 9 -386 691 -399 705 -4 4 -17 -10 -28 -30z"/>
<path d="M4188 5718 c-8 -13 -46 -77 -83 -143 -37 -66 -76 -133 -85 -150 -27
-46 -129 -225 -155 -270 -17 -31 -213 -375 -232 -407 -2 -5 255 -8 572 -8
l575 0 -24 38 c-19 30 -117 201 -294 512 -49 88 -255 445 -257 448 -1 1 -9 -8
-17 -20z"/>
<path d="M2578 4572 c-192 -1 -348 -5 -348 -9 0 -3 17 -38 39 -77 21 -39 60
-111 87 -161 26 -49 58 -108 71 -130 12 -22 26 -47 30 -55 4 -8 43 -82 88
-165 45 -82 106 -195 135 -250 29 -55 61 -113 70 -128 l17 -28 68 118 c37 65
80 141 96 168 15 28 113 199 217 380 166 290 186 330 168 332 -43 5 -404 8
-738 5z"/>
<path d="M3762 4572 l-133 -3 24 -42 c14 -23 79 -136 145 -252 66 -115 129
-226 139 -245 11 -19 34 -59 52 -88 17 -29 31 -54 31 -56 0 -2 36 -65 80 -140
44 -76 80 -141 80 -145 0 -5 6 -13 13 -19 9 -8 65 82 242 391 127 220 245 428
263 462 19 33 43 75 54 93 11 18 18 35 16 38 -6 5 -815 10 -1006 6z"/>
<path d="M1989 4388 c-62 -110 -59 -106 -186 -328 -56 -96 -110 -191 -122
-210 -11 -19 -24 -41 -28 -49 -3 -8 -44 -79 -90 -159 -45 -80 -80 -148 -77
-151 3 -3 259 -6 570 -7 l564 0 -29 50 c-70 128 -97 176 -136 241 -22 39 -44
77 -48 85 -4 8 -15 29 -25 45 -10 17 -33 56 -51 88 -18 32 -64 113 -103 180
-39 67 -85 147 -101 177 -39 70 -76 130 -81 130 -3 0 -28 -42 -57 -92z"/>
<path d="M4874 4407 c-59 -104 -272 -479 -283 -497 -23 -38 -241 -421 -241
-423 0 -2 257 -3 570 -3 436 0 570 3 566 12 -2 6 -104 187 -227 400 -122 214
-231 405 -242 424 -61 109 -92 160 -97 160 -3 0 -23 -33 -46 -73z"/>
<path d="M1491 3285 c128 -224 308 -540 327 -575 14 -25 28 -49 32 -55 4 -5
19 -31 33 -57 77 -140 160 -278 166 -278 4 0 15 15 24 33 9 17 29 55 45 82
132 229 472 826 485 850 l15 30 -572 0 -572 0 17 -30z"/>
<path d="M4359 3310 c-4 -3 23 -59 61 -124 39 -65 70 -120 70 -121 0 -2 224
-395 265 -465 8 -14 47 -82 87 -152 40 -71 75 -128 78 -128 5 0 177 295 226
385 6 11 83 147 173 303 89 155 164 288 166 295 4 9 -113 12 -556 12 -308 0
-565 -2 -570 -5z"/>
<path d="M1185 2983 c-77 -136 -154 -272 -171 -302 -25 -45 -120 -212 -186
-326 -34 -58 -68 -121 -68 -125 0 -7 1128 -5 1135 2 4 3 -12 36 -34 72 -23 37
-41 69 -41 73 0 3 -6 14 -14 22 -7 9 -26 41 -42 71 -16 30 -36 66 -45 80 -9
14 -96 165 -194 337 -97 171 -182 318 -188 326 -10 13 -36 -27 -152 -230z"/>
<path d="M5633 3218 c-6 -7 -70 -119 -144 -248 -74 -129 -139 -244 -146 -255
-7 -11 -16 -27 -20 -35 -4 -8 -62 -111 -130 -229 -68 -117 -121 -216 -118
-219 6 -6 1115 -10 1127 -4 7 3 -25 68 -74 147 -10 17 -22 39 -28 50 -5 11
-23 43 -40 70 -16 28 -33 56 -37 64 -3 8 -62 111 -130 229 -68 118 -123 217
-123 219 0 3 -8 17 -19 31 -16 24 -64 108 -96 170 -10 17 -15 19 -22 10z"/>
<path d="M760 2054 c0 -3 55 -101 122 -217 66 -117 133 -233 147 -258 141
-250 297 -519 301 -519 3 0 19 26 36 58 17 31 74 131 126 222 53 91 108 188
123 215 16 28 86 150 157 273 70 123 128 226 128 228 0 2 -256 4 -570 4 -314
0 -570 -3 -570 -6z"/>
<path d="M3641 2038 c15 -28 159 -279 188 -328 11 -19 24 -42 28 -50 4 -8 56
-100 116 -205 60 -104 120 -210 134 -235 14 -25 41 -71 60 -103 32 -53 36 -57
48 -40 6 10 61 104 120 208 59 105 117 206 128 225 11 19 30 53 42 75 13 22
79 138 148 258 l125 217 -574 0 -575 0 12 -22z"/>
<path d="M5070 2055 c0 -3 45 -84 99 -179 55 -95 110 -191 122 -212 12 -21 48
-85 80 -140 32 -56 71 -124 86 -151 110 -195 179 -313 183 -313 3 0 61 100
130 221 167 295 160 282 309 543 72 126 131 231 131 233 0 1 -256 3 -570 3
-313 0 -570 -2 -570 -5z"/>
<path d="M425 1653 c-99 -173 -194 -341 -211 -372 -18 -31 -64 -112 -103 -179
-39 -68 -71 -126 -71 -128 0 -2 256 -4 570 -4 314 0 570 2 570 5 0 3 -52 97
-116 208 -64 111 -131 227 -148 258 -113 202 -302 529 -306 529 -3 -1 -86
-143 -185 -317z"/>
<path d="M3460 1933 c-13 -21 -34 -58 -48 -83 -19 -33 -470 -823 -499 -872 -2
-5 253 -8 566 -8 319 0 571 4 571 9 0 5 -39 75 -86 157 -47 82 -97 168 -109
191 -13 23 -69 120 -124 216 -55 96 -109 191 -120 211 -12 20 -29 51 -39 69
-11 17 -34 58 -51 90 -18 31 -34 57 -36 57 -2 0 -13 -17 -25 -37z"/>
<path d="M4755 1688 c-88 -155 -171 -302 -185 -327 -14 -25 -38 -65 -53 -88
-15 -24 -27 -45 -27 -48 0 -3 -31 -60 -70 -126 -38 -66 -70 -122 -70 -124 0
-3 257 -5 570 -5 314 0 570 3 570 6 0 3 -25 49 -55 102 -31 54 -61 106 -67
117 -6 11 -40 69 -75 129 -35 60 -63 110 -63 112 0 2 -18 33 -40 69 -22 36
-40 68 -40 70 0 3 -11 22 -23 43 -13 20 -36 60 -52 87 -15 28 -41 73 -56 100
-16 28 -44 76 -61 108 -18 31 -35 57 -38 57 -3 0 -77 -127 -165 -282z"/>
<path d="M6085 1497 c-148 -259 -277 -484 -288 -499 l-18 -28 576 0 576 0 -12
23 c-7 12 -62 110 -124 217 -61 107 -123 215 -137 240 -69 123 -290 506 -297
512 -4 5 -128 -205 -276 -465z"/>
</g>
</svg>
